HIERARCHY
ROOT Hips
{
	OFFSET 0.000000 0.000000 0.000000
	CHANNELS 6 Xposition Yposition Zposition Xrotation Yrotation Zrotation
	JOINT LeftUpLeg_virtual
	{
		OFFSET 0.000000 0.000000 0.000000
		CHANNELS 3 Xrotation Yrotation Zrotation
		JOINT LeftUpLeg
		{
			OFFSET 13.026900 -6.336304 -1.092800
			CHANNELS 3 Xrotation Yrotation Zrotation
			JOINT LeftLeg
			{
				OFFSET 0.524474 -46.096886 9.782700
				CHANNELS 3 Xrotation Yrotation Zrotation
				JOINT LeftFoot
				{
					OFFSET -0.524474 -53.427422 -12.948200
					CHANNELS 3 Xrotation Yrotation Zrotation
					JOINT LeftToeBase
					{
						OFFSET 0.192200 -14.009700 16.364100
						CHANNELS 3 Xrotation Yrotation Zrotation
						JOINT LeftToe_End
						{
							OFFSET -1.784700 -0.561700 9.474800
							CHANNELS 3 Xrotation Yrotation Zrotation
							End Site
							{
								OFFSET 0 0 0
							}
						}
					}
				}
			}
		}
	}
	JOINT RightUpLeg_virtual
	{
		OFFSET 0.000000 0.000000 0.000000
		CHANNELS 3 Xrotation Yrotation Zrotation
		JOINT RightUpLeg
		{
			OFFSET -12.883000 -6.336304 -1.092800
			CHANNELS 3 Xrotation Yrotation Zrotation
			JOINT RightLeg
			{
				OFFSET -0.524587 -46.096825 9.782800
				CHANNELS 3 Xrotation Yrotation Zrotation
				JOINT RightFoot
				{
					OFFSET 0.524587 -53.427383 -12.948300
					CHANNELS 3 Xrotation Yrotation Zrotation
					JOINT RightToeBase
					{
						OFFSET -0.192200 -14.009700 16.364100
						CHANNELS 3 Xrotation Yrotation Zrotation
						JOINT RightToe_End
						{
							OFFSET 1.784700 -0.561700 9.474800
							CHANNELS 3 Xrotation Yrotation Zrotation
							End Site
							{
								OFFSET 0 0 0
							}
						}
					}
				}
			}
		}
	}
	JOINT Spine_virtual
	{
		OFFSET 0.000000 0.000000 0.000000
		CHANNELS 3 Xrotation Yrotation Zrotation
		JOINT Spine
		{
			OFFSET 0.072000 7.257294 -0.789700
			CHANNELS 3 Xrotation Yrotation Zrotation
			JOINT Spine1
			{
				OFFSET 0.000000 12.508769 -0.658067
				CHANNELS 3 Xrotation Yrotation Zrotation
				JOINT Spine1_split
				{
					OFFSET 0.000000 12.508769 -0.658067
					CHANNELS 3 Xrotation Yrotation Zrotation
					JOINT Spine2
					{
						OFFSET 0.000000 12.508769 -0.658067
						CHANNELS 3 Xrotation Yrotation Zrotation
						JOINT Neck_virtual
						{
							OFFSET 0.000000 0.000000 0.000000
							CHANNELS 3 Xrotation Yrotation Zrotation
							JOINT Neck
							{
								OFFSET 0.000000 14.033295 7.520400
								CHANNELS 3 Xrotation Yrotation Zrotation
								JOINT Head
								{
									OFFSET 0.000000 8.198502 5.703100
									CHANNELS 3 Xrotation Yrotation Zrotation
									JOINT HeadTop_End
									{
										OFFSET 0.000000 17.760803 13.332701
										CHANNELS 3 Xrotation Yrotation Zrotation
										End Site
										{
											OFFSET 0 0 0
										}
									}
								}
							}
						}
						JOINT LeftShoulder_virtual
						{
							OFFSET 0.000000 0.000000 0.000000
							CHANNELS 3 Xrotation Yrotation Zrotation
							JOINT LeftShoulder
							{
								OFFSET 6.292450 5.785301 -0.669000
								CHANNELS 3 Xrotation Yrotation Zrotation
								JOINT LeftShoulder_split
								{
									OFFSET 6.292450 5.785301 -0.669000
									CHANNELS 3 Xrotation Yrotation Zrotation
									JOINT LeftArm
									{
										OFFSET 13.907140 -6.093903 1.965100
										CHANNELS 3 Xrotation Yrotation Zrotation
										JOINT LeftForeArm
										{
											OFFSET 34.140198 0.000000 0.000000
											CHANNELS 3 Xrotation Yrotation Zrotation
											JOINT LeftHand
											{
												OFFSET 40.960209 0.000000 0.000000
												CHANNELS 3 Xrotation Yrotation Zrotation
												End Site
												{
													OFFSET 0 0 0
												}
											}
										}
									}
								}
							}
						}
						JOINT RightShoulder_virtual
						{
							OFFSET 0.000000 0.000000 0.000000
							CHANNELS 3 Xrotation Yrotation Zrotation
							JOINT RightShoulder
							{
								OFFSET -6.292450 5.785301 -0.669000
								CHANNELS 3 Xrotation Yrotation Zrotation
								JOINT RightShoulder_split
								{
									OFFSET -6.292450 5.785301 -0.669000
									CHANNELS 3 Xrotation Yrotation Zrotation
									JOINT RightArm
									{
										OFFSET -13.907140 -6.093903 1.965100
										CHANNELS 3 Xrotation Yrotation Zrotation
										JOINT RightForeArm
										{
											OFFSET -34.140198 0.000000 0.000000
											CHANNELS 3 Xrotation Yrotation Zrotation
											JOINT RightHand
											{
												OFFSET -40.960209 0.000000 0.000000
												CHANNELS 3 Xrotation Yrotation Zrotation
												End Site
												{
													OFFSET 0 0 0
												}
											}
										}
									}
								}
							}
						}
					}
				}
			}
		}
	}
}
MOTION
Frames: 9
Frame Time: 0.03333333
9.009865 88.722038 -16.848598 0.000000 0.000000 0.000000 -7.570125 15.321567 2.107033 -35.092050 -3.290071 15.829554 63.322376 -1.892860 0.564098 -15.046632 -0.560439 -16.035491 -5.274426 -3.743614 -0.501949 0.000000 0.000000 0.000000 -6.569233 15.343610 1.719917 -30.318455 -6.663553 -11.630596 65.185324 7.834607 -5.579373 -23.953199 -19.023535 20.984822 2.248186 6.447659 -12.858927 0.000000 0.000000 0.000000 -9.005943 16.838325 1.989373 15.685371 4.286876 4.417579 10.676217 -4.720502 3.153090 0.205965 -0.472863 0.043122 0.000000 0.000000 0.000000 11.620588 -1.585299 1.977175 14.557380 5.543153 2.175895 37.454876 5.708563 -29.182919 0.000000 0.000000 0.000000 11.776321 -3.935412 1.274327 1.359317 -21.094944 -11.472454 8.663893 -2.527359 -4.631083 -31.335409 -11.551240 -44.725172 -33.756376 -61.818902 -38.964279 0.000000 0.000000 0.000000 12.772040 -2.766824 2.289321 3.694628 -2.315031 22.015409 12.087749 6.962797 5.825986 -34.002884 35.849754 47.907958 -44.926498 66.963530 41.607709 0.000000 0.000000 0.000000 
8.800044 89.708107 -16.447353 0.000000 0.000000 0.000000 -7.973559 15.491339 2.264922 -33.143250 -2.763150 15.573668 61.983509 -1.818017 0.732470 -15.486300 -0.166533 -16.001762 -5.201362 -3.792080 -0.587180 0.000000 0.000000 0.000000 -6.962041 15.273071 1.874829 -28.930007 -7.170695 -11.423539 64.117110 7.684277 -5.499266 -23.898330 -18.965209 20.652778 2.108335 6.410753 -12.772828 0.000000 0.000000 0.000000 -9.201893 16.710640 2.193946 16.202665 4.250247 4.960547 9.887109 -5.024616 2.868517 0.139076 -0.549933 0.008143 0.000000 0.000000 0.000000 10.940455 -1.894114 1.811407 12.506102 6.425186 -0.920825 37.400221 7.554933 -28.562880 0.000000 0.000000 0.000000 11.278848 -4.157843 1.197990 1.041656 -19.654274 -12.669653 8.557033 -3.082890 -4.794847 -29.557961 -13.849310 -45.166747 -27.300049 -61.591504 -32.337012 0.000000 0.000000 0.000000 12.141125 -3.089654 2.021650 3.682261 -2.030572 22.039444 12.840152 5.735994 5.905874 -31.019960 35.162528 47.432676 -41.149834 68.914314 38.200319 0.000000 0.000000 0.000000 
8.523279 90.931129 -15.865986 0.000000 0.000000 0.000000 -8.338573 15.535161 2.434937 -31.069574 -2.333891 15.264832 60.303064 -1.797174 0.947701 -15.835054 0.259388 -15.989198 -4.748567 -3.840263 -0.614251 0.000000 0.000000 0.000000 -7.353437 15.274601 2.073179 -27.285685 -7.830999 -11.190959 62.687838 7.518764 -5.360532 -23.747053 -18.925886 20.287537 1.950935 6.399593 -12.713928 0.000000 0.000000 0.000000 -9.495694 16.726913 2.422942 16.787174 4.134982 5.329611 9.217366 -5.204364 2.595561 0.053286 -0.539795 0.028609 0.000000 0.000000 0.000000 10.383278 -2.086368 1.588350 10.611394 7.350530 -3.895068 35.819213 9.168596 -27.421883 0.000000 0.000000 0.000000 10.825731 -4.295794 1.130936 0.743949 -18.959948 -13.834859 7.970728 -3.159635 -4.734079 -26.614607 -16.200136 -45.060650 -21.675100 -61.264345 -26.055602 0.000000 0.000000 0.000000 11.483426 -3.350343 1.781645 3.540984 -1.666030 22.039446 12.949619 4.620070 5.995167 -26.580975 34.286716 45.319463 -41.254308 72.934194 38.833225 0.000000 0.000000 0.000000 
8.173241 92.233559 -15.273205 0.000000 0.000000 0.000000 -8.613103 15.412327 2.565125 -29.067035 -2.130342 14.934079 58.509641 -1.873543 1.217252 -16.018822 0.611967 -16.024167 -4.195281 -3.900292 -0.550518 0.000000 0.000000 0.000000 -7.750489 15.312463 2.285064 -25.638327 -8.507586 -10.947075 61.067922 7.343568 -5.162875 -23.508058 -18.889706 19.906335 1.851996 6.413344 -12.721790 0.000000 0.000000 0.000000 -9.692752 16.862349 2.552124 17.368606 3.972468 5.539794 8.689265 -5.259619 2.373818 0.065081 -0.482522 0.077345 0.000000 0.000000 0.000000 9.978378 -2.181264 1.411216 8.902100 8.277163 -6.630435 33.015792 10.360277 -25.877802 0.000000 0.000000 0.000000 10.394424 -4.355441 1.107652 0.509172 -18.871862 -14.863156 7.005968 -2.978784 -4.797113 -23.472229 -17.720659 -44.449956 -17.482571 -61.443111 -20.735753 0.000000 0.000000 0.000000 10.847061 -3.536928 1.626403 3.309777 -1.331736 21.944870 12.205840 3.811246 6.342243 -21.483614 32.602737 42.752637 -45.813241 77.686039 43.932535 0.000000 0.000000 0.000000 
7.803720 93.465546 -14.688122 0.000000 0.000000 0.000000 -8.803494 15.201139 2.633446 -27.281635 -2.211540 14.591051 56.804047 -2.003118 1.506805 -16.053733 0.886792 -16.082403 -3.687004 -3.964126 -0.454653 0.000000 0.000000 0.000000 -8.085907 15.340724 2.443723 -24.131957 -9.051669 -10.722621 59.471024 7.145841 -4.896643 -23.242794 -18.859913 19.493995 1.921949 6.437945 -12.792851 0.000000 0.000000 0.000000 -9.744794 17.012666 2.559681 17.846912 3.768564 5.625503 8.273555 -5.237438 2.199613 0.108726 -0.389082 0.118138 0.000000 0.000000 0.000000 9.665885 -2.229715 1.331997 7.420674 9.165388 -8.899924 29.339925 10.972111 -24.123793 0.000000 0.000000 0.000000 10.003423 -4.366199 1.084665 0.356028 -19.101281 -15.804257 5.639559 -2.916293 -4.965627 -20.489628 -17.599208 -43.937306 -14.262469 -62.625151 -16.056025 0.000000 0.000000 0.000000 10.335785 -3.658779 1.540440 3.030332 -1.124022 21.810452 11.426932 3.685924 6.656372 -16.805935 29.835318 41.069238 -54.381539 81.614702 52.864933 0.000000 0.000000 0.000000 
7.457632 94.534645 -14.214870 0.000000 0.000000 0.000000 -8.924974 15.000096 2.629729 -25.820350 -2.500867 14.271453 55.309653 -2.193990 1.797508 -15.954439 1.096914 -16.220357 -3.363581 -4.018041 -0.371490 0.000000 0.000000 0.000000 -8.368794 15.327045 2.531481 -22.830650 -9.394510 -10.528293 57.986633 6.921773 -4.578757 -23.018373 -18.841733 19.018394 2.201637 6.461014 -12.916156 0.000000 0.000000 0.000000 -9.653629 17.101950 2.461280 18.154720 3.529806 5.583123 7.943274 -5.196835 2.029754 0.193374 -0.266871 0.129490 0.000000 0.000000 0.000000 9.420135 -2.263380 1.306417 6.270924 9.925968 -10.506216 25.171977 10.953779 -22.242571 0.000000 0.000000 0.000000 9.656682 -4.371376 1.004816 0.287225 -19.362507 -16.589732 4.432490 -3.049814 -4.901312 -18.049630 -15.662141 -44.233726 -10.548795 -64.727428 -10.846000 0.000000 0.000000 0.000000 9.960961 -3.715415 1.495543 2.802582 -1.083826 21.687451 11.048693 4.083254 6.682246 -13.744988 26.399023 41.268440 -59.694180 83.898957 58.293656 0.000000 0.000000 0.000000 
7.153513 95.399246 -13.865643 0.000000 0.000000 0.000000 -9.007636 14.875935 2.574398 -24.618795 -2.804454 14.001661 53.963108 -2.368669 2.030797 -15.796069 1.282617 -16.367194 -3.274882 -4.056218 -0.295551 0.000000 0.000000 0.000000 -8.629062 15.187843 2.541129 -21.731859 -9.550384 -10.379376 56.663355 6.665866 -4.229006 -22.846657 -18.848720 18.491656 2.579621 6.477444 -13.054414 0.000000 0.000000 0.000000 -9.508169 17.224255 2.376486 18.275027 3.249305 5.387631 7.657847 -5.152385 1.816655 0.253828 -0.207689 0.092775 0.000000 0.000000 0.000000 9.201232 -2.323099 1.304721 5.471692 10.410925 -11.298217 20.786508 10.068274 -20.106308 0.000000 0.000000 0.000000 9.345118 -4.381414 0.847198 0.332260 -19.350290 -17.035586 3.456835 -3.123655 -4.725803 -16.416954 -12.575548 -45.445043 -4.125921 -66.686962 -3.215546 0.000000 0.000000 0.000000 9.716338 -3.739514 1.440536 2.698271 -1.269319 21.455798 10.596063 4.819776 6.881661 -12.034442 22.812912 42.717997 -50.528490 84.639445 48.889647 0.000000 0.000000 0.000000 
6.917015 96.063339 -13.595715 0.000000 0.000000 0.000000 -9.067010 14.778702 2.502065 -23.677119 -2.940847 13.807957 52.739968 -2.478395 2.151588 -15.631045 1.508951 -16.453152 -3.206618 -4.066368 -0.273505 0.000000 0.000000 0.000000 -8.822758 14.921349 2.509762 -20.758357 -9.582167 -10.274772 55.491930 6.396762 -3.874165 -22.707930 -18.871019 17.985640 2.898384 6.490080 -13.177436 0.000000 0.000000 0.000000 -9.431684 17.320998 2.356702 18.191927 2.936425 5.024658 7.400870 -5.119793 1.554036 0.226985 -0.195956 0.012253 0.000000 0.000000 0.000000 8.986025 -2.409950 1.261490 4.950243 10.562005 -11.202455 16.406960 7.981694 -17.609744 0.000000 0.000000 0.000000 9.069182 -4.404477 0.610521 0.484364 -18.981893 -17.011034 2.629198 -3.143034 -4.354501 -15.333819 -9.267888 -47.382293 5.838070 -67.668542 7.518077 0.000000 0.000000 0.000000 9.555151 -3.762925 1.336422 2.728854 -1.662591 21.149273 10.480609 5.757187 6.831116 -11.349234 19.658620 44.659660 -34.126719 84.171864 31.966604 0.000000 0.000000 0.000000 
6.736848 96.567314 -13.382816 0.000000 0.000000 0.000000 -9.081037 14.545914 2.437213 -22.926418 -2.789646 13.718091 51.602192 -2.518829 2.162340 -15.523386 1.769618 -16.415561 -3.089062 -4.056627 -0.262054 0.000000 0.000000 0.000000 -8.953171 14.514509 2.471935 -19.897550 -9.558699 -10.216617 54.429299 6.152577 -3.550858 -22.566875 -18.895003 17.602285 3.070000 6.494003 -13.271519 0.000000 0.000000 0.000000 -9.465935 17.430685 2.408149 17.957452 2.616288 4.491194 7.190732 -5.095350 1.267001 0.167790 -0.151383 -0.045437 0.000000 0.000000 0.000000 8.786871 -2.501938 1.130917 4.648618 10.380218 -10.364974 12.284939 4.567657 -14.778876 0.000000 0.000000 0.000000 8.829761 -4.451082 0.325701 0.731129 -18.347153 -16.404224 2.134467 -3.327514 -3.735728 -14.729590 -6.430200 -49.465671 17.881128 -66.788172 19.817114 0.000000 0.000000 0.000000 9.405653 -3.785945 1.188987 2.876837 -2.187620 20.833534 10.321860 6.734359 6.755117 -10.905718 17.319557 46.490564 -22.031267 83.204914 19.236523 0.000000 0.000000 0.000000 
